# xmcd
# 
# Track frame offsets:
#     150
#     13615
#     32232
#     47617
#     60142
#     79002
#     96070
#     110050
#     124140
#     138655
# 
# Disc length: 2052
# 
# Revision: 0
# Processed by: cddbd v1.5.2PL0 Copyright (c) Steve Scherf et al.
# Submitted via: BonkEnc v1.0.8
# 
DISCID=7d08020a
DTITLE=Various Artist - Line Dance Party!
DYEAR=0
DGENRE=Country
TTITLE0=Will Faeber - Frontier Breakdown
TTITLE1=The Cheap Setats - Sweet Maria
TTITLE2=The Nashville Cats - Canniballs
TTITLE3=Don Emerson - You Got Your Way
TTITLE4=Back Door - Chasing Your Dream
TTITLE5=Sam Millar - She is Just Too Hot for Me
TTITLE6=Sean Kenny - 49 One Liners
TTITLE7=Dave Sheriff - Mighty Matador
TTITLE8=Alan John Brittas and Country FM - Do It To It
TTITLE9=Barry Upton - Friday All Night Long
EXTD=Country Music Magazine\nLine Dance Party! CD and Magazine
EXTT0=
EXTT1=
EXTT2=
EXTT3=
EXTT4=
EXTT5=
EXTT6=
EXTT7=
EXTT8=
EXTT9=
PLAYORDER=
